<svg width="41" height="40" viewBox="0 0 41 40" fill="none" xmlns="http://www.w3.org/2000/svg">
<path d="M20.5 0C9.45536 0 0.5 8.95536 0.5 20C0.5 31.0446 9.45536 40 20.5 40C31.5446 40 40.5 31.0446 40.5 20C40.5 8.95536 31.5446 0 20.5 0ZM20.5 36.6071C11.3304 36.6071 3.89286 29.1696 3.89286 20C3.89286 10.8304 11.3304 3.39286 20.5 3.39286C29.6696 3.39286 37.1071 10.8304 37.1071 20C37.1071 29.1696 29.6696 36.6071 20.5 36.6071ZM22.6295 18.9643L21.4955 18.7009V12.7054C23.192 12.9375 24.2411 14 24.4196 15.3036C24.442 15.4821 24.5938 15.6116 24.7723 15.6116H26.7768C26.9866 15.6116 27.1518 15.4286 27.1339 15.2188C26.8616 12.4375 24.5714 10.6518 21.5134 10.3438V8.88393C21.5134 8.6875 21.3527 8.52679 21.1563 8.52679H19.9018C19.7054 8.52679 19.5446 8.6875 19.5446 8.88393V10.3571C16.3839 10.6652 13.9107 12.4107 13.9107 15.6696C13.9107 18.6875 16.1339 20.1429 18.4688 20.7009L19.5714 20.9821V27.3527C17.5982 27.0893 16.4911 26.0357 16.2634 24.6161C16.2366 24.4464 16.0848 24.3214 15.9107 24.3214H13.8482C13.6384 24.3214 13.4732 24.5 13.4911 24.7098C13.692 27.1652 15.5536 29.4241 19.5268 29.7143V31.1161C19.5268 31.3125 19.6875 31.4732 19.8839 31.4732H21.1518C21.3482 31.4732 21.5089 31.3125 21.5089 31.1116L21.5 29.6964C24.9955 29.3884 27.4955 27.5179 27.4955 24.1607C27.4911 21.0625 25.5223 19.6786 22.6295 18.9643ZM19.567 18.2411C19.317 18.1696 19.1071 18.1027 18.8973 18.0179C17.3884 17.4732 16.6875 16.5938 16.6875 15.4598C16.6875 13.8393 17.9152 12.9152 19.567 12.7054V18.2411ZM21.4955 27.3661V21.3973C21.6339 21.4375 21.7589 21.4688 21.8884 21.4955C24 22.1384 24.7098 23.0312 24.7098 24.4018C24.7098 26.1473 23.3973 27.1964 21.4955 27.3661Z" fill="#FFC700"/>
</svg>
