<svg width="39" height="39" viewBox="0 0 39 39" fill="none" xmlns="http://www.w3.org/2000/svg">
<path d="M19.4805 0C8.7165 0 0 8.736 0 19.5C0 30.264 8.7165 39 19.4805 39C30.264 39 39 30.264 39 19.5C39 8.736 30.264 0 19.4805 0ZM19.5 35.1C10.881 35.1 3.9 28.119 3.9 19.5C3.9 10.881 10.881 3.9 19.5 3.9C28.119 3.9 35.1 10.881 35.1 19.5C35.1 28.119 28.119 35.1 19.5 35.1Z" fill="#FFC700"/>
<path d="M20.4758 9.75H17.5508V21.45L27.7883 27.5925L29.2508 25.194L20.4758 19.9875V9.75Z" fill="#FFC700"/>
</svg>
